<svg width="24" height="24" viewBox="0 0 24 24" fill="none" xmlns="http://www.w3.org/2000/svg">
<g clip-path="url(#clip0_2462_8267)">
<path d="M20.8707 8.6017C21.0437 7.89131 20.8534 7.10962 20.2997 6.55584L14.3777 0.633844C13.9689 0.225141 13.4255 0 12.8474 0C12.2694 0 11.7259 0.225141 11.3172 0.633844L3.42961 8.5215C2.28066 8.75109 1.41211 9.76725 1.41211 10.9827V21.4899C1.41211 22.874 2.53809 24 3.92217 24H20.0778C21.4619 24 22.5879 22.874 22.5879 21.4899V10.9827C22.5879 9.87572 21.8672 8.93442 20.8707 8.6017ZM12.3115 1.6282C12.4547 1.48509 12.645 1.40625 12.8474 1.40625C13.0498 1.40625 13.2401 1.48509 13.3833 1.6282L19.3053 7.5502C19.5551 7.8 19.5929 8.18189 19.4203 8.47266H16.2075C16.1429 8.36423 16.1077 8.24044 16.1077 8.11092C16.1077 7.92155 16.1814 7.74347 16.3153 7.60959C16.4472 7.47778 16.5213 7.29891 16.5213 7.11244C16.5213 6.92597 16.4472 6.74709 16.3153 6.61528L14.3182 4.61827C14.0437 4.34372 13.5985 4.34372 13.3239 4.61827C13.19 4.75214 13.0119 4.82592 12.8226 4.82592C12.6332 4.82592 12.4552 4.75219 12.3212 4.61827C12.0467 4.34372 11.6015 4.34372 11.3269 4.61827L7.47244 8.4727H5.46712L12.3115 1.6282ZM14.7336 8.47266H9.46116L11.909 6.02484C12.4847 6.29986 13.1602 6.29986 13.7361 6.02484L14.9086 7.19738C14.7179 7.5967 14.6597 8.04394 14.7336 8.47266ZM20.0778 22.5938H3.92217C3.31355 22.5938 2.81836 22.0986 2.81836 21.4899V10.9827C2.81836 10.3741 3.3135 9.87891 3.92217 9.87891H20.0778C20.6865 9.87891 21.1816 10.374 21.1816 10.9827V12.709H19.0401C17.1064 12.709 15.5332 14.2822 15.5332 16.2158C15.5332 18.1495 17.1064 19.7227 19.0401 19.7227H21.1816V21.4899C21.1816 22.0986 20.6865 22.5938 20.0778 22.5938ZM21.1816 14.1152V18.3165H19.0401C17.8818 18.3165 16.9395 17.3741 16.9395 16.2159C16.9395 15.0577 17.8818 14.1153 19.0401 14.1153H21.1816V14.1152Z" fill="#BACED0"/>
<path d="M18.3574 16.2158C18.3745 16.5968 18.6664 16.9189 19.0605 16.9189C19.4283 16.9189 19.7807 16.5956 19.7637 16.2158C19.7466 15.8349 19.4547 15.5127 19.0605 15.5127C18.6927 15.5127 18.3404 15.8361 18.3574 16.2158Z" fill="#BACED0"/>
</g>
<defs>
<clipPath id="clip0_2462_8267">
<rect width="24" height="24" fill="white"/>
</clipPath>
</defs>
</svg>
